<?xml version="1.0" standalone="no"?>
<!DOCTYPE svg PUBLIC "-//W3C//DTD SVG 20010904//EN"
 "http://www.w3.org/TR/2001/REC-SVG-20010904/DTD/svg10.dtd">
<svg version="1.0" xmlns="http://www.w3.org/2000/svg"
  viewBox="0 0 900.000000 510.000000"
 preserveAspectRatio="xMidYMid meet">
<metadata>
Created by potrace 1.10, written by Peter Selinger 2001-2011
</metadata>
<g transform="translate(0.000000,510.000000) scale(0.100000,-0.100000)"
fill="#1896f7" stroke="none">
<path d="M1665 3535 c-27 -7 -65 -14 -84 -14 -45 -1 -151 -36 -241 -79 -102
-49 -221 -133 -300 -212 -52 -51 -140 -164 -140 -178 0 -5 -7 -15 -15 -22 -8
-7 -15 -20 -15 -30 0 -10 -7 -23 -15 -30 -8 -7 -15 -21 -15 -30 0 -10 -6 -31
-14 -47 -20 -41 -38 -94 -43 -128 -2 -16 -11 -78 -20 -137 -15 -98 -15 -114 1
-205 9 -54 16 -112 16 -128 1 -17 7 -41 15 -55 8 -14 14 -33 15 -43 0 -16 83
-196 102 -222 33 -45 117 -143 157 -183 57 -57 165 -142 180 -142 5 0 16 -6
23 -12 22 -21 78 -48 98 -48 9 0 23 -7 30 -15 7 -8 21 -15 31 -15 10 0 33 -6
51 -14 71 -30 146 -39 318 -39 128 0 191 4 235 15 125 34 218 73 303 130 24
15 47 28 52 28 11 0 230 213 230 223 0 7 37 64 50 77 14 14 99 199 105 227 4
18 11 35 16 38 5 4 9 23 9 43 1 20 7 66 15 102 18 83 18 189 0 265 -8 33 -15
78 -15 100 0 22 -7 49 -15 59 -8 11 -15 32 -15 47 0 14 -7 32 -15 39 -8 7 -15
18 -15 25 0 12 -18 52 -42 95 -4 8 -11 22 -15 30 -4 8 -32 49 -64 90 -61 82
-149 167 -220 215 -24 17 -45 33 -47 38 -2 4 -12 7 -22 7 -10 0 -21 4 -24 9
-6 8 -46 29 -131 65 -133 58 -402 90 -510 61z m224 -467 c42 -26 46 -30 89
-84 30 -39 32 -47 32 -118 0 -57 -5 -85 -21 -116 -12 -22 -25 -40 -30 -40 -5
0 -9 -16 -9 -35 0 -19 4 -35 9 -35 5 0 20 -21 33 -47 35 -72 42 -77 114 -78
36 0 69 -6 76 -13 6 -6 19 -12 28 -12 21 0 82 -58 108 -103 28 -49 30 -151 4
-200 -22 -42 -85 -107 -103 -107 -8 0 -23 -7 -33 -15 -12 -9 -42 -15 -73 -15
-64 0 -122 28 -178 85 l-40 41 -109 -2 c-89 -1 -110 -4 -118 -18 -17 -29 -62
-66 -107 -86 -59 -27 -119 -25 -179 5 -49 24 -112 87 -112 110 0 7 -7 26 -15
41 -19 37 -19 81 0 118 8 15 15 34 15 41 0 17 88 105 104 105 7 0 28 7 45 16
23 12 46 15 77 10 49 -6 74 0 74 19 0 6 13 30 30 53 41 57 46 83 21 106 -12
11 -21 23 -21 28 0 5 -7 16 -15 24 -8 9 -15 26 -15 39 0 13 -4 27 -10 30 -25
15 -5 108 37 175 21 34 34 45 98 82 46 26 148 24 194 -4z"/>
<path d="M1783 2578 c-6 -7 -13 -20 -17 -28 -3 -8 -15 -28 -26 -45 -11 -16
-24 -40 -29 -52 -5 -11 -15 -24 -20 -28 -16 -9 -13 -61 3 -74 9 -8 47 -11 107
-9 l94 3 3 34 c4 36 -14 79 -60 145 -16 21 -28 45 -28 53 0 16 -14 17 -27 1z"/>
<path d="M6787 2861 c-21 -4 -43 -13 -50 -20 -6 -6 -21 -11 -34 -11 -13 0 -23
-4 -23 -9 0 -5 -8 -12 -17 -15 -41 -13 -132 -117 -164 -186 -9 -19 -24 -70
-34 -113 -16 -73 -16 -82 0 -150 16 -66 37 -121 68 -172 24 -40 127 -135 164
-151 105 -47 137 -53 255 -54 64 0 119 4 122 9 3 4 22 11 42 14 61 10 84 68
45 115 -15 17 -30 22 -63 22 -24 0 -50 -6 -56 -12 -16 -16 -183 -18 -203 -2
-8 6 -26 14 -41 18 -16 3 -28 11 -28 16 0 6 -5 10 -11 10 -26 0 -119 116 -119
148 0 10 -5 23 -12 30 -16 16 -17 147 0 163 6 7 12 21 12 31 0 45 80 126 167
171 41 21 219 23 285 4 40 -13 47 -12 66 4 16 12 22 28 22 58 0 38 -3 42 -42
63 -37 18 -62 22 -178 24 -74 2 -152 -1 -173 -5z"/>
<path d="M3102 2848 c-9 -9 -12 -117 -12 -423 l0 -412 25 -11 c28 -13 77 -15
112 -6 22 6 23 10 25 173 l3 166 149 3 c90 1 155 7 163 14 20 16 17 114 -3
122 -9 3 -78 6 -154 6 -127 0 -140 2 -150 19 -15 30 -13 206 3 220 8 6 81 12
193 13 l179 3 3 48 c5 79 13 77 -272 77 -183 0 -255 -3 -264 -12z"/>
<path d="M3787 2854 c-4 -4 -7 -196 -7 -426 l0 -418 26 -10 c35 -14 97 -12
117 3 16 11 17 46 15 432 l-3 420 -70 3 c-39 1 -74 0 -78 -4z"/>
<path d="M4110 2840 c-10 -19 -12 -798 -2 -827 6 -19 126 -17 142 2 9 11 11
74 8 255 l-4 240 22 0 c16 0 54 -43 154 -177 74 -98 136 -180 140 -183 3 -3
17 -20 30 -39 12 -18 43 -55 68 -82 39 -42 50 -49 83 -49 71 0 70 -7 68 442 0
219 -3 406 -6 418 -5 17 -13 20 -69 20 -52 0 -65 -3 -74 -19 -6 -12 -10 -105
-10 -234 0 -243 -4 -277 -31 -277 -11 0 -19 4 -19 9 0 9 -216 301 -231 311 -3
3 -29 34 -57 70 -111 141 -110 140 -158 140 -33 0 -46 -5 -54 -20z"/>
<path d="M4962 2848 c-7 -7 -12 -36 -12 -65 l0 -53 104 0 c57 0 111 -3 120 -6
14 -5 16 -46 16 -348 0 -187 4 -346 8 -352 21 -32 87 -43 136 -24 l26 10 0
349 c0 336 1 351 19 361 11 5 72 10 135 10 l116 0 0 49 c0 88 28 81 -334 81
-237 0 -325 -3 -334 -12z"/>
<path d="M5767 2853 c-4 -3 -7 -194 -7 -424 0 -388 1 -419 18 -427 9 -5 137
-9 283 -10 255 -2 266 -2 284 18 22 25 24 75 3 96 -13 13 -48 16 -216 15 -183
-1 -202 0 -211 16 -12 23 -18 174 -7 191 5 9 51 12 171 12 139 0 164 2 169 16
10 27 7 99 -6 112 -8 8 -59 12 -165 12 -140 0 -153 2 -163 19 -14 28 -13 204
2 219 9 9 70 12 214 12 230 0 213 -7 205 88 l-3 42 -282 0 c-156 0 -286 -3
-289 -7z"/>
<path d="M7349 2838 c-3 -77 3 -833 7 -837 7 -7 97 -6 127 2 l27 7 0 160 c0
158 0 161 23 168 12 4 103 5 202 2 l180 -5 3 -163 2 -163 26 -9 c33 -13 90
-13 115 0 18 10 19 26 19 423 0 308 -3 416 -12 425 -7 7 -37 12 -68 12 -31 0
-61 -5 -68 -12 -8 -8 -12 -61 -12 -173 0 -118 -4 -166 -13 -179 -12 -17 -28
-18 -196 -14 -100 3 -186 9 -191 14 -5 5 -11 88 -12 184 l-3 175 -77 3 c-75 3
-78 2 -79 -20z"/>
</g>
</svg>
